<mxfile host="app.diagrams.net" modified="2023-11-16T20:32:00.033Z" agent="Mozilla/5.0 (Windows NT 10.0; Win64; x64) AppleWebKit/537.36 (KHTML, like Gecko) Chrome/119.0.0.0 Safari/537.36 Edg/119.0.0.0" etag="OGQwt-RayNdKJN1ccJcI" version="22.1.2" type="device">
  <diagram name="PÃ¡gina-1" id="cQBJPiFT9EdiWLjHy8WE">
    <mxGraphModel dx="1678" dy="978" grid="1" gridSize="10" guides="1" tooltips="1" connect="1" arrows="1" fold="1" page="1" pageScale="1" pageWidth="1169" pageHeight="827" background="#FFFFFF" math="0" shadow="0">
      <root>
        <mxCell id="0" />
        <mxCell id="1" parent="0" />
        <mxCell id="2PiCaddSVrQBDe9usaX1-23" style="edgeStyle=orthogonalEdgeStyle;rounded=0;orthogonalLoop=1;jettySize=auto;html=1;entryX=1;entryY=0.5;entryDx=0;entryDy=0;strokeColor=#1964FA;strokeWidth=3;" edge="1" parent="1" source="C7Uv9WLbkiM16HJj1obP-1" target="C7Uv9WLbkiM16HJj1obP-3">
          <mxGeometry relative="1" as="geometry" />
        </mxCell>
        <mxCell id="2PiCaddSVrQBDe9usaX1-24" style="edgeStyle=orthogonalEdgeStyle;rounded=0;orthogonalLoop=1;jettySize=auto;html=1;entryX=0.5;entryY=0;entryDx=0;entryDy=0;strokeColor=#0066ff;strokeWidth=3;" edge="1" parent="1" source="C7Uv9WLbkiM16HJj1obP-1" target="C7Uv9WLbkiM16HJj1obP-2">
          <mxGeometry relative="1" as="geometry" />
        </mxCell>
        <mxCell id="C7Uv9WLbkiM16HJj1obP-1" value="Boolean.h&amp;nbsp;" style="rounded=1;whiteSpace=wrap;html=1;" parent="1" vertex="1">
          <mxGeometry x="220" y="260" width="120" height="60" as="geometry" />
        </mxCell>
        <mxCell id="2PiCaddSVrQBDe9usaX1-16" style="edgeStyle=orthogonalEdgeStyle;rounded=0;orthogonalLoop=1;jettySize=auto;html=1;entryX=0;entryY=0.5;entryDx=0;entryDy=0;endArrow=none;endFill=0;" edge="1" parent="1">
          <mxGeometry relative="1" as="geometry">
            <mxPoint x="340" y="490" as="sourcePoint" />
            <mxPoint x="410" y="490" as="targetPoint" />
          </mxGeometry>
        </mxCell>
        <mxCell id="2PiCaddSVrQBDe9usaX1-17" style="edgeStyle=orthogonalEdgeStyle;rounded=0;orthogonalLoop=1;jettySize=auto;html=1;exitX=1;exitY=0.25;exitDx=0;exitDy=0;entryX=0;entryY=0.25;entryDx=0;entryDy=0;endArrow=none;endFill=0;" edge="1" parent="1" source="C7Uv9WLbkiM16HJj1obP-2" target="C7Uv9WLbkiM16HJj1obP-16">
          <mxGeometry relative="1" as="geometry" />
        </mxCell>
        <mxCell id="2PiCaddSVrQBDe9usaX1-21" style="edgeStyle=orthogonalEdgeStyle;rounded=0;orthogonalLoop=1;jettySize=auto;html=1;endArrow=classic;endFill=1;entryX=0.5;entryY=0;entryDx=0;entryDy=0;strokeColor=#0080FF;" edge="1" parent="1" source="C7Uv9WLbkiM16HJj1obP-2" target="C7Uv9WLbkiM16HJj1obP-4">
          <mxGeometry relative="1" as="geometry">
            <mxPoint x="80" y="480" as="targetPoint" />
          </mxGeometry>
        </mxCell>
        <mxCell id="C7Uv9WLbkiM16HJj1obP-2" value="Fecha.h" style="rounded=1;whiteSpace=wrap;html=1;" parent="1" vertex="1">
          <mxGeometry x="220" y="440" width="120" height="60" as="geometry" />
        </mxCell>
        <mxCell id="2PiCaddSVrQBDe9usaX1-20" style="edgeStyle=orthogonalEdgeStyle;rounded=0;orthogonalLoop=1;jettySize=auto;html=1;entryX=0.25;entryY=0;entryDx=0;entryDy=0;strokeColor=#057AFF;" edge="1" parent="1" source="C7Uv9WLbkiM16HJj1obP-3" target="C7Uv9WLbkiM16HJj1obP-4">
          <mxGeometry relative="1" as="geometry" />
        </mxCell>
        <mxCell id="C7Uv9WLbkiM16HJj1obP-3" value="String.h" style="rounded=1;whiteSpace=wrap;html=1;" parent="1" vertex="1">
          <mxGeometry x="20" y="260" width="115" height="60" as="geometry" />
        </mxCell>
        <mxCell id="C7Uv9WLbkiM16HJj1obP-26" value="" style="edgeStyle=orthogonalEdgeStyle;rounded=0;orthogonalLoop=1;jettySize=auto;html=1;endArrow=none;endFill=0;" parent="1" edge="1">
          <mxGeometry relative="1" as="geometry">
            <mxPoint x="160" y="740" as="sourcePoint" />
            <mxPoint x="240" y="740" as="targetPoint" />
          </mxGeometry>
        </mxCell>
        <mxCell id="C7Uv9WLbkiM16HJj1obP-27" style="edgeStyle=orthogonalEdgeStyle;rounded=0;orthogonalLoop=1;jettySize=auto;html=1;exitX=1;exitY=0.25;exitDx=0;exitDy=0;entryX=0;entryY=0.25;entryDx=0;entryDy=0;strokeColor=#000000;endArrow=none;endFill=0;" parent="1" source="C7Uv9WLbkiM16HJj1obP-4" target="C7Uv9WLbkiM16HJj1obP-10" edge="1">
          <mxGeometry relative="1" as="geometry" />
        </mxCell>
        <mxCell id="C7Uv9WLbkiM16HJj1obP-4" value="&lt;font style=&quot;font-size: 13px;&quot;&gt;Consultas.h&lt;/font&gt;" style="rounded=1;whiteSpace=wrap;html=1;fillColor=#006aff;strokeColor=#6c8ebf;" parent="1" vertex="1">
          <mxGeometry x="60" y="700" width="100" height="60" as="geometry" />
        </mxCell>
        <mxCell id="2PiCaddSVrQBDe9usaX1-14" style="edgeStyle=orthogonalEdgeStyle;rounded=0;orthogonalLoop=1;jettySize=auto;html=1;exitX=0.75;exitY=1;exitDx=0;exitDy=0;entryX=0.75;entryY=0;entryDx=0;entryDy=0;endArrow=none;endFill=0;" edge="1" parent="1" source="C7Uv9WLbkiM16HJj1obP-7" target="C7Uv9WLbkiM16HJj1obP-3">
          <mxGeometry relative="1" as="geometry" />
        </mxCell>
        <mxCell id="2PiCaddSVrQBDe9usaX1-15" style="edgeStyle=orthogonalEdgeStyle;rounded=0;orthogonalLoop=1;jettySize=auto;html=1;exitX=0.25;exitY=1;exitDx=0;exitDy=0;entryX=0.25;entryY=0;entryDx=0;entryDy=0;endArrow=none;endFill=0;" edge="1" parent="1" source="C7Uv9WLbkiM16HJj1obP-7" target="C7Uv9WLbkiM16HJj1obP-3">
          <mxGeometry relative="1" as="geometry" />
        </mxCell>
        <mxCell id="C7Uv9WLbkiM16HJj1obP-7" value="String.cpp" style="rounded=1;whiteSpace=wrap;html=1;" parent="1" vertex="1">
          <mxGeometry x="17.5" y="60" width="120" height="60" as="geometry" />
        </mxCell>
        <mxCell id="C7Uv9WLbkiM16HJj1obP-10" value="&lt;font style=&quot;font-size: 13px;&quot;&gt;Consultas.cpp&lt;/font&gt;" style="rounded=1;whiteSpace=wrap;html=1;fillColor=#006aff;strokeColor=#6c8ebf;" parent="1" vertex="1">
          <mxGeometry x="240" y="700" width="110" height="60" as="geometry" />
        </mxCell>
        <mxCell id="2PiCaddSVrQBDe9usaX1-10" style="edgeStyle=orthogonalEdgeStyle;rounded=0;orthogonalLoop=1;jettySize=auto;html=1;entryX=0.5;entryY=0;entryDx=0;entryDy=0;endArrow=none;endFill=0;" edge="1" parent="1">
          <mxGeometry relative="1" as="geometry">
            <mxPoint x="250" y="139.9999999999999" as="sourcePoint" />
            <mxPoint x="250" y="260" as="targetPoint" />
          </mxGeometry>
        </mxCell>
        <mxCell id="2PiCaddSVrQBDe9usaX1-13" style="edgeStyle=orthogonalEdgeStyle;rounded=0;orthogonalLoop=1;jettySize=auto;html=1;exitX=0.75;exitY=1;exitDx=0;exitDy=0;entryX=0.75;entryY=0;entryDx=0;entryDy=0;endArrow=none;endFill=0;" edge="1" parent="1" source="C7Uv9WLbkiM16HJj1obP-13" target="C7Uv9WLbkiM16HJj1obP-1">
          <mxGeometry relative="1" as="geometry" />
        </mxCell>
        <mxCell id="C7Uv9WLbkiM16HJj1obP-13" value="Boolean.cpp" style="rounded=1;whiteSpace=wrap;html=1;" parent="1" vertex="1">
          <mxGeometry x="220" y="80" width="120" height="60" as="geometry" />
        </mxCell>
        <mxCell id="C7Uv9WLbkiM16HJj1obP-16" value="Fecha.cpp" style="rounded=1;whiteSpace=wrap;html=1;" parent="1" vertex="1">
          <mxGeometry x="410" y="440" width="120" height="60" as="geometry" />
        </mxCell>
        <mxCell id="C7Uv9WLbkiM16HJj1obP-24" style="edgeStyle=orthogonalEdgeStyle;rounded=0;orthogonalLoop=1;jettySize=auto;html=1;exitX=1;exitY=0.25;exitDx=0;exitDy=0;entryX=0;entryY=0.25;entryDx=0;entryDy=0;endArrow=none;endFill=0;" parent="1" source="C7Uv9WLbkiM16HJj1obP-22" target="C7Uv9WLbkiM16HJj1obP-23" edge="1">
          <mxGeometry relative="1" as="geometry" />
        </mxCell>
        <mxCell id="C7Uv9WLbkiM16HJj1obP-25" style="edgeStyle=orthogonalEdgeStyle;rounded=0;orthogonalLoop=1;jettySize=auto;html=1;exitX=1;exitY=0.75;exitDx=0;exitDy=0;entryX=0;entryY=0.75;entryDx=0;entryDy=0;endArrow=none;endFill=0;" parent="1" source="C7Uv9WLbkiM16HJj1obP-22" target="C7Uv9WLbkiM16HJj1obP-23" edge="1">
          <mxGeometry relative="1" as="geometry" />
        </mxCell>
        <mxCell id="C7Uv9WLbkiM16HJj1obP-22" value="ArbolPacientes.h" style="rounded=0;whiteSpace=wrap;html=1;" parent="1" vertex="1">
          <mxGeometry x="870" y="440" width="120" height="60" as="geometry" />
        </mxCell>
        <mxCell id="C7Uv9WLbkiM16HJj1obP-23" value="ArbolPacientes.cpp" style="rounded=0;whiteSpace=wrap;html=1;" parent="1" vertex="1">
          <mxGeometry x="1042.5" y="440" width="120" height="60" as="geometry" />
        </mxCell>
        <mxCell id="C7Uv9WLbkiM16HJj1obP-31" style="edgeStyle=orthogonalEdgeStyle;orthogonalLoop=1;jettySize=auto;html=1;exitX=0.75;exitY=1;exitDx=0;exitDy=0;entryX=0.75;entryY=0;entryDx=0;entryDy=0;curved=1;endArrow=none;endFill=0;" parent="1" source="C7Uv9WLbkiM16HJj1obP-28" target="C7Uv9WLbkiM16HJj1obP-29" edge="1">
          <mxGeometry relative="1" as="geometry" />
        </mxCell>
        <mxCell id="C7Uv9WLbkiM16HJj1obP-32" style="edgeStyle=orthogonalEdgeStyle;rounded=0;orthogonalLoop=1;jettySize=auto;html=1;exitX=0.25;exitY=1;exitDx=0;exitDy=0;entryX=0.25;entryY=0;entryDx=0;entryDy=0;endArrow=none;endFill=0;" parent="1" source="C7Uv9WLbkiM16HJj1obP-28" target="C7Uv9WLbkiM16HJj1obP-29" edge="1">
          <mxGeometry relative="1" as="geometry" />
        </mxCell>
        <mxCell id="C7Uv9WLbkiM16HJj1obP-28" value="Consultorio.h" style="rounded=0;whiteSpace=wrap;html=1;fillColor=#0050ef;strokeColor=#001DBC;fontColor=#ffffff;" parent="1" vertex="1">
          <mxGeometry x="920" y="600" width="120" height="60" as="geometry" />
        </mxCell>
        <mxCell id="C7Uv9WLbkiM16HJj1obP-29" value="Consultorio.cpp" style="rounded=0;whiteSpace=wrap;html=1;fillColor=#0050ef;fontColor=#ffffff;strokeColor=#001DBC;" parent="1" vertex="1">
          <mxGeometry x="920" y="720" width="120" height="60" as="geometry" />
        </mxCell>
        <mxCell id="C7Uv9WLbkiM16HJj1obP-33" value="Evaluacion.h" style="rounded=1;whiteSpace=wrap;html=1;glass=0;" parent="1" vertex="1">
          <mxGeometry x="420" y="570" width="120" height="60" as="geometry" />
        </mxCell>
        <mxCell id="2PiCaddSVrQBDe9usaX1-18" style="edgeStyle=orthogonalEdgeStyle;rounded=0;orthogonalLoop=1;jettySize=auto;html=1;entryX=0;entryY=0.5;entryDx=0;entryDy=0;endArrow=none;endFill=0;" edge="1" parent="1">
          <mxGeometry relative="1" as="geometry">
            <mxPoint x="330" y="620.0000000000001" as="sourcePoint" />
            <mxPoint x="420" y="620.0000000000001" as="targetPoint" />
          </mxGeometry>
        </mxCell>
        <mxCell id="2PiCaddSVrQBDe9usaX1-19" style="edgeStyle=orthogonalEdgeStyle;rounded=0;orthogonalLoop=1;jettySize=auto;html=1;exitX=1;exitY=0.25;exitDx=0;exitDy=0;entryX=0;entryY=0.25;entryDx=0;entryDy=0;endArrow=none;endFill=0;" edge="1" parent="1" source="2PiCaddSVrQBDe9usaX1-1" target="C7Uv9WLbkiM16HJj1obP-33">
          <mxGeometry relative="1" as="geometry" />
        </mxCell>
        <mxCell id="2PiCaddSVrQBDe9usaX1-22" style="edgeStyle=orthogonalEdgeStyle;rounded=0;orthogonalLoop=1;jettySize=auto;html=1;entryX=0.75;entryY=0;entryDx=0;entryDy=0;strokeColor=#005DFC;" edge="1" parent="1" source="2PiCaddSVrQBDe9usaX1-1" target="C7Uv9WLbkiM16HJj1obP-4">
          <mxGeometry relative="1" as="geometry" />
        </mxCell>
        <mxCell id="2PiCaddSVrQBDe9usaX1-1" value="Evaluacion.h" style="rounded=1;whiteSpace=wrap;html=1;" vertex="1" parent="1">
          <mxGeometry x="210" y="570" width="120" height="60" as="geometry" />
        </mxCell>
      </root>
    </mxGraphModel>
  </diagram>
</mxfile>
